inDegrees=no
num_controls=7
num_derivatives=13
num_iterations=78
num_multipliers=7
num_parameters=0
num_slacks=7
num_states=26
objective=0.454594
objective_accelerations=0.044838
objective_balance=0.000819
objective_effort=0.036536
objective_height=0.366305
objective_ligament=0.006096
solver_duration=879.127662
status=Solve_Succeeded
success=true
DataType=double
version=3
OpenSimVersion=4.5
endheader
time	/jointset/ground_pelvis/pelvis_tilt/value	/jointset/ground_pelvis/pelvis_tx/value	/jointset/ground_pelvis/pelvis_ty/value	/jointset/hip_r/hip_flexion_r/value	/jointset/hip_r/hip_adduction_r/value	/jointset/hip_r/hip_rotation_r/value	/jointset/back/lumbar_extension/value	/jointset/patellofemoral_r/patellar_flexion_r/value	/jointset/knee_r/knee_flexion_r/value	/jointset/knee_r/knee_adduction_r/value	/jointset/knee_r/knee_rotation_r/value	/jointset/ankle_r/ankle_angle_r/value	/jointset/subtalar_r/subtalar_angle_r/value	/jointset/ground_pelvis/pelvis_tilt/speed	/jointset/ground_pelvis/pelvis_tx/speed	/jointset/ground_pelvis/pelvis_ty/speed	/jointset/hip_r/hip_flexion_r/speed	/jointset/hip_r/hip_adduction_r/speed	/jointset/hip_r/hip_rotation_r/speed	/jointset/back/lumbar_extension/speed	/jointset/patellofemoral_r/patellar_flexion_r/speed	/jointset/knee_r/knee_flexion_r/speed	/jointset/knee_r/knee_adduction_r/speed	/jointset/knee_r/knee_rotation_r/speed	/jointset/ankle_r/ankle_angle_r/speed	/jointset/subtalar_r/subtalar_angle_r/speed	/forceset/tau_hip_flexion_r	/forceset/tau_hip_adduction_r	/forceset/tau_hip_rotation_r	/forceset/tau_knee_flexion_r	/forceset/tau_ankle_angle_r	/forceset/tau_subtalar_angle_r	/forceset/tau_lumbar_extension	lambda_cid13_p0	lambda_cid14_p0	lambda_cid14_p1	lambda_cid14_p2	lambda_cid14_p3	lambda_cid14_p4	lambda_cid14_p5	/jointset/ground_pelvis/pelvis_tilt/accel	/jointset/ground_pelvis/pelvis_tx/accel	/jointset/ground_pelvis/pelvis_ty/accel	/jointset/hip_r/hip_flexion_r/accel	/jointset/hip_r/hip_adduction_r/accel	/jointset/hip_r/hip_rotation_r/accel	/jointset/back/lumbar_extension/accel	/jointset/patellofemoral_r/patellar_flexion_r/accel	/jointset/knee_r/knee_flexion_r/accel	/jointset/knee_r/knee_adduction_r/accel	/jointset/knee_r/knee_rotation_r/accel	/jointset/ankle_r/ankle_angle_r/accel	/jointset/subtalar_r/subtalar_angle_r/accel	gamma_cid13_p0	gamma_cid14_p0	gamma_cid14_p1	gamma_cid14_p2	gamma_cid14_p3	gamma_cid14_p4	gamma_cid14_p5
0.5	-0.1258504525929191	0.03314602571248883	0.8135087116317992	0.8525736746610261	-0.2518132641985681	-0.0553348096856458	-0.6432576525027666	0.9408062544002088	0.9408062544002089	0.06303833865034013	0.1741178598310451	0.2891504712712946	0.09102310439769966	-0.3255480085748907	-0.1925483248611275	-0.4662941516001834	1.761010592607529	-0.03911783741962023	0.5023191703788896	-0.7340097662171219	1.88485016975685	1.88485016975685	-0.0844040072386123	-0.002515457309195676	0.5265968678793387	0.1102037612980162	-0.1881084146846737	0.004363912446796974	0.03536815511250782	-0.2932343625138945	0.00143430772538487	-0.01493970521424764	0.2345124989591539	-8.687101446309063	-42.88810960548461	-12.75024288400437	1.029762051101566	-3.88900651604267	-644.0265678523164	57.80236585590302	0.2396454391432266	0.544744199951539	-0.3625124795266213	-1.198531678457076	0.2150338294977887	-0.1772932879865114	1.72796224947774	-1.409096848980295	-1.409096848980294	0.4356669608315036	0.001158109479693347	-0.4860740272010642	0.236306324827484	-5.988440138543915e-08	2.016550869552336e-08	1.265628919496152e-06	-1.983423888334261e-08	-1.424368515126783e-07	-1.262497403323e-07	8.290411073869439e-07
0.51	-0.129093265152836	0.03124792884125951	0.8088287082225299	0.8701211323282817	-0.2521940556270372	-0.0503224495915125	-0.6505107775133886	0.9595814806589174	0.9595814806589226	0.06221571207408945	0.1740944000801452	0.2943911106244924	0.09213617251613283	-0.3229649654490383	-0.1870572291743406	-0.469602990654421	1.748245910575094	-0.03703461408492895	0.5000874990309603	-0.7165336157060563	1.869938974502499	1.869938974502501	-0.08015394028341755	-0.002174054679538139	0.5214538216901996	0.1124008987181934	-0.1941149633034895	0.005552101992604116	0.03606506582200989	-0.2979078035651025	0.0002527412263057476	-0.01481639583191592	0.2401483660714785	-7.736212645797803	-43.55913500613082	-12.96631123307854	1.23797827919825	-3.756741358465259	-648.5592919156802	57.90036480230192	0.2750692001409157	0.55333346194045	-0.2995641552258685	-1.350686235577305	0.2059324068839173	-0.2560178065243933	1.76968448208311	-1.570535056766045	-1.570535056765713	0.4149722450295111	0.05104037060727257	-0.5400349226215581	0.2102935616131441	-5.650909449370944e-08	2.956761806748834e-08	1.367160294551444e-06	4.475913087794819e-08	-1.593128267749704e-07	-1.212379908756419e-07	9.037781077857057e-07
0.52	-0.1323087601913266	0.02940515116867772	0.8041187175153477	0.8875338932212238	-0.252553821657872	-0.04533438896052677	-0.6575866924128678	0.9781999141264623	0.9781999141264721	0.06143464530382665	0.1740744361617173	0.2995779965142289	0.09327098723096792	-0.3200845042898011	-0.1814844851316232	-0.4722916111828026	1.734071237745035	-0.03491275789307052	0.497459277749902	-0.6985677439885057	1.853491611524005	1.853491611524009	-0.07609204604158129	-0.001816290813942354	0.5158461751870108	0.1145530805783833	-0.2001215119223179	0.006740291538403663	0.03676197653149929	-0.3025812446163125	-0.0009288252727750384	-0.01469308644959606	0.2457842331837929	-6.843703360660255	-44.22940877609675	-13.17724791171958	1.439664990049138	-3.649239828418926	-653.0817231919657	58.03114195859945	0.2991290458201836	0.5610738711376546	-0.2384687743554031	-1.480529837981786	0.2227604009312186	-0.2566032746122963	1.825906490774722	-1.716330393808924	-1.716330393808923	0.3980324181597985	0.004430356667347958	-0.5789940900110666	0.2273152128300294	-5.017051578846462e-08	3.288186383910055e-08	1.330883521989683e-06	8.056565117604162e-08	-1.597159214214478e-07	-1.088211413970422e-07	8.911994910818342e-07
0.53	-0.1354940026219918	0.02761845610821435	0.7993849591184653	0.9047980052061377	-0.25289219185468	-0.04037466813151076	-0.6644805961852606	0.9966463774401164	0.9966463774401231	0.06069309096495739	0.1740581297045989	0.3047065747328604	0.0944270914655656	-0.3169141114960702	-0.1758455048677316	-0.4743540022404881	1.718522114358267	-0.03276002915479557	0.4944127536085885	-0.6801449529648044	1.835558958292326	1.835558958292328	-0.07225581072962491	-0.001437771236089587	0.5097993140407955	0.1166534309354403	-0.2060260645118719	0.007836373875013642	0.03741514690539807	-0.3073410379445073	-0.002146670869380962	-0.01459979281641883	0.2513021910246075	-6.010324395287206	-44.91945507325096	-13.40304436095996	1.641849748323644	-3.481566309781952	-657.6544468729734	58.15856336056964	0.3334797687189886	0.5666314324807625	-0.1742348383270439	-1.626455061712772	0.2118081026135075	-0.3395946060946632	1.860674036931414	-1.868037356810239	-1.868037356810541	0.37104854936942	0.05570600027586363	-0.6280916441767819	0.1994623470204162	-4.393597907023413e-08	3.551988274177254e-08	1.286400694944141e-06	1.124942322650519e-07	-1.590241725124656e-07	-9.641870547366445e-08	8.742613067950112e-07
0.54	-0.138646044050205	0.02588841511608308	0.7946337546976358	0.9218997556626449	-0.2532089789656367	-0.03544759606835057	-0.6711882303216637	1.014906253307662	1.014906253307665	0.05998882487154233	0.1740458370916415	0.3097725724365801	0.09560381268370932	-0.3134443037995629	-0.1701536714652033	-0.4757808159722519	1.701598932063958	-0.03059614072300398	0.4909295245791241	-0.6613138167905612	1.816174122302133	1.816174122302133	-0.06863439695143467	-0.001013521980973354	0.5033300722045797	0.118676477287573	-0.2119306171014386	0.008932456211618381	0.03806831727928148	-0.312100831272704	-0.003364516465987673	-0.01450649918324965	0.2568201488654115	-5.2362736236807	-45.60925263090986	-13.62387262095842	1.837617247935655	-3.338833915072087	-662.2246682639442	58.31697816125963	0.3590120263754878	0.5716444988649759	-0.1113533091710675	-1.755341619489919	0.2249923396345482	-0.3439442522425056	1.907575520883077	-2.006766945511738	-2.006766945511738	0.3550681114065604	0.01357629212004354	-0.663470228011149	0.2118544118451732	-3.781655263550884e-08	3.740973574689366e-08	1.232838828895265e-06	1.401323274206083e-07	-1.57121107329358e-07	-8.403221646244702e-08	8.524997711398163e-07
